<svg width="16" height="16" viewBox="0 0 16 16" fill="none" xmlns="http://www.w3.org/2000/svg">
<path d="M6 4H13.3333" stroke="currentColor" stroke-width="1.33" stroke-linecap="round" stroke-linejoin="round"/>
<path d="M3.33334 5.33341V2.66675" stroke="currentColor" stroke-width="0.6" stroke-linecap="round" stroke-linejoin="round"/>
<path d="M4 9.33341H3.06666C2.84575 9.33341 2.66666 9.15435 2.66666 8.93341V8.40008C2.66666 8.17915 2.84575 8.00008 3.06666 8.00008H3.6C3.82091 8.00008 4 7.82101 4 7.60008V7.06675C4 6.84581 3.82091 6.66675 3.6 6.66675H2.66666" stroke="currentColor" stroke-width="0.6" stroke-linecap="round" stroke-linejoin="round"/>
<path d="M2.66666 10.6667H3.6C3.82091 10.6667 4 10.8458 4 11.0667V12.9334C4 13.1543 3.82091 13.3334 3.6 13.3334H2.66666" stroke="currentColor" stroke-width="0.6" stroke-linecap="round" stroke-linejoin="round"/>
<path d="M4 12H2.66666" stroke="currentColor" stroke-width="0.6" stroke-linecap="round" stroke-linejoin="round"/>
<path d="M6 8H13.3333" stroke="currentColor" stroke-width="1.33" stroke-linecap="round" stroke-linejoin="round"/>
<path d="M6 12H13.3333" stroke="currentColor" stroke-width="1.33" stroke-linecap="round" stroke-linejoin="round"/>
</svg>
