<svg width="24" height="24" viewBox="0 0 24 24" fill="none" xmlns="http://www.w3.org/2000/svg">
<path d="M12.7492 19.249L17.6726 15.0513C18.0115 14.7624 18.0873 14.4316 17.9 14.0589C17.7127 13.6863 17.3782 13.5 16.8966 13.5L7.1034 13.5C6.62177 13.5 6.2873 13.6863 6.1 14.0589C5.9127 14.4316 5.98851 14.7624 6.32744 15.0513L11.2508 19.249C11.3578 19.3403 11.4738 19.4049 11.5986 19.443C11.7235 19.481 11.8573 19.5 12 19.5C12.1427 19.5 12.2765 19.481 12.4014 19.443C12.5262 19.4049 12.6422 19.3403 12.7492 19.249Z" fill="#A8A8A8"/>
<path d="M17.6726 8.94867C18.0115 9.23764 18.0873 9.56844 17.9 9.94106C17.7127 10.3137 17.3782 10.5 16.8966 10.5L7.1034 10.5C6.62177 10.5 6.2873 10.3137 6.1 9.94106C5.9127 9.56844 5.98851 9.23764 6.32744 8.94867L11.2508 4.75095C11.3578 4.6597 11.4738 4.59506 11.5986 4.55703C11.7235 4.51901 11.8573 4.5 12 4.5C12.1427 4.5 12.2765 4.51901 12.4014 4.55703C12.5262 4.59506 12.6422 4.6597 12.7492 4.75095L17.6726 8.94867Z" fill="#393939"/>
</svg>
