<svg width="14" height="16" viewBox="0 0 14 16" fill="none" xmlns="http://www.w3.org/2000/svg">
<path id="Vector" d="M8.85467 7.85177C8.57733 7.98652 8.118 8.14823 7.47667 8.14823H4.04467V3.54857H7.286C7.84067 3.54857 8.378 3.63841 8.68133 3.77316C9.11467 3.9708 9.418 4.24031 9.61733 4.61763C9.79067 4.94104 9.86867 5.32734 9.86867 5.81247C9.86867 6.84559 9.53933 7.51937 8.846 7.86075L8.85467 7.85177ZM12.3213 2.07524C11.7753 1.35654 11.0733 0.799551 10.2067 0.422235C9.548 0.125772 8.534 0 7.76267 0H0.5V16H4.25267V11.6698H7.77133C8.69 11.6698 9.808 11.4453 10.6053 11.041C11.6887 10.502 12.486 9.55867 12.9713 8.44469C13.3093 7.63616 13.5 6.74677 13.5 5.81247C13.5 4.40202 13.0753 3.10837 12.3213 2.08422V2.07524Z" fill="white"/>
</svg>
